<svg width="120" height="112" fill="none" xmlns="http://www.w3.org/2000/svg"><path d="M88.66 57.717l-.027.065-.026.066c-.419 1.05-.437 2.035-.435 2.48.004.565.061 1.117.129 1.593.136.958.372 2.015.632 3.018.523 2.014 1.262 4.26 1.925 5.918 2.489 6.223 10.505 14.458 22.932 17.567-2.734 3.92-7.192 5.356-13.749 6.307-1.26.183-2.694.356-4.202.538-2.709.327-5.658.683-8.28 1.177-4.327.816-8.943 2.167-13.022 5.018l-.003.001c-4.277 2.993-7.94 5.488-13.452 5.534h-.002a10.148 10.148 0 00-.374-.041 7.522 7.522 0 00-.687-.033h-.74c-5.606 0-9.24-2.452-13.482-5.499l-.022-.015-.022-.015c-4.177-2.933-8.867-4.252-13.25-5.001-2.662-.455-5.657-.75-8.389-1.02-1.495-.147-2.91-.287-4.15-.44-3.897-.484-7-1.168-9.464-2.479-1.655-.881-3.129-2.102-4.34-3.993 8.043-2.212 13.88-7.241 17.736-11.769 3.963-4.656 6.095-9.081 6.64-10.283l.001-.003.038-.072c1.173-2.24 2.196-5.541.713-8.747-1.216-2.678-3.616-4.15-5.126-4.92-1.157-.591-2.383-1.054-3.366-1.397.914.193 1.84.307 2.765.314a9.618 9.618 0 004.735-1.104l2.949-1.552-.297-3.319-.25-2.776c-.25-4.085-.511-8.393-.406-12.397.109-4.133.606-7.317 1.516-9.34l.012-.027.012-.026C40.267 6.29 54.2 5.068 58.626 5.068h.082l.082-.002 2-.066h.223c4.398 0 18.428 1.238 25.093 16.137.828 1.852 1.71 6.038 1.403 13.532l-.017.137c-.016.132-.038.294-.067.504l-.015.113c-.053.39-.122.89-.186 1.432-.139 1.174-.283 2.733-.236 4.309.042 1.446.253 3.567 1.298 5.459.566 1.024 1.44 2.097 2.75 2.868 1.331.785 2.788 1.068 4.191 1.004 1.312-.06 1.88.26 2.064.394.2.144.32.331.378.566.034.14.037.264.028.36-.204.054-.427.11-.697.176-.155.04-.327.082-.52.13-.641.163-1.486.386-2.34.705-1.66.621-4.2 1.921-5.48 4.891z" stroke="url(#paint0_linear)" stroke-width="10"/><defs><linearGradient id="paint0_linear" x1="29" y1="105.5" x2="88.614" y2="20.734" gradientUnits="userSpaceOnUse"><stop stop-color="#FA6DA0"/><stop offset="1" stop-color="#F5B350"/></linearGradient></defs></svg>