<svg width="93" height="122" fill="none" xmlns="http://www.w3.org/2000/svg"><path fill-rule="evenodd" clip-rule="evenodd" d="M20 12h49a8 8 0 018 8v82a8 8 0 01-8 8H20a8 8 0 01-8-8V20a8 8 0 018-8zM0 20C0 8.954 8.954 0 20 0h49c11.046 0 20 8.954 20 20v7.341c2.33.824 4 3.047 4 5.659v14a6.003 6.003 0 01-4 5.659V102c0 11.046-8.954 20-20 20H20c-11.046 0-20-8.954-20-20V20z" fill="url(#paint0_linear)"/><defs><linearGradient id="paint0_linear" x1="31.871" y1="110" x2="107.751" y2="11.346" gradientUnits="userSpaceOnUse"><stop stop-color="#F5B350"/><stop offset="1" stop-color="#6DF1FA"/></linearGradient></defs></svg>