<svg width="64" height="64" fill="none" xmlns="http://www.w3.org/2000/svg"><circle cx="32" cy="32" r="30" stroke="#fff" stroke-width="4"/><circle cx="32" cy="32" r="30" stroke="url(#paint0_linear)" stroke-width="4"/><path d="M24.578 28.913a11.937 11.937 0 00-1.956-1.141c4.38-2.525 7.262-8.655 8.676-12.39l10.82 12.386c-.682.318-1.329.706-1.937 1.145m-15.603 0c-.614.438-1.267.825-1.956 1.141 4.38 2.525 7.262 8.655 8.676 12.39a49.997 49.997 0 011.062-2.615m-7.782-10.916c.448-.32.876-.667 1.283-1.034 1.954-1.76 3.518-4.047 4.723-6.23a40.847 40.847 0 001.776-3.652 42.653 42.653 0 001.819 3.664c1.22 2.177 2.79 4.457 4.724 6.213.405.368.831.717 1.278 1.039m-15.603 0c.448.32.876.667 1.283 1.034 1.954 1.76 3.518 4.047 4.723 6.23a40.847 40.847 0 011.776 3.652m0 0a47.396 47.396 0 011.033 2.629c1.464-3.732 4.413-9.87 8.725-12.4a11.889 11.889 0 01-1.937-1.145M32.36 39.829a42.625 42.625 0 011.819-3.664c1.22-2.177 2.79-4.457 4.724-6.213.405-.368.831-.717 1.278-1.039" stroke="#fff" stroke-width="4" stroke-linecap="round" stroke-linejoin="round"/><path d="M24.578 28.913a11.937 11.937 0 00-1.956-1.141c4.38-2.525 7.262-8.655 8.676-12.39l10.82 12.386c-.682.318-1.329.706-1.937 1.145m-15.603 0c-.614.438-1.267.825-1.956 1.141 4.38 2.525 7.262 8.655 8.676 12.39a49.997 49.997 0 011.062-2.615m-7.782-10.916c.448-.32.876-.667 1.283-1.034 1.954-1.76 3.518-4.047 4.723-6.23a40.847 40.847 0 001.776-3.652 42.653 42.653 0 001.819 3.664c1.22 2.177 2.79 4.457 4.724 6.213.405.368.831.717 1.278 1.039m-15.603 0c.448.32.876.667 1.283 1.034 1.954 1.76 3.518 4.047 4.723 6.23a40.847 40.847 0 011.776 3.652m0 0a47.396 47.396 0 011.033 2.629c1.464-3.732 4.413-9.87 8.725-12.4a11.889 11.889 0 01-1.937-1.145M32.36 39.829a42.625 42.625 0 011.819-3.664c1.22-2.177 2.79-4.457 4.724-6.213.405-.368.831-.717 1.278-1.039" stroke="url(#paint1_linear)" stroke-width="4" stroke-linecap="round" stroke-linejoin="round"/><path d="M48.96 39.058c.13.117.264.231.404.339a6.31 6.31 0 00-.404.34c-.848.77-1.533 1.765-2.063 2.71a18.09 18.09 0 00-.664 1.313 17.379 17.379 0 00-.65-1.307c-.523-.948-1.205-1.947-2.062-2.72a6.534 6.534 0 00-.405-.336c.14-.107.275-.22.405-.337.857-.772 1.54-1.771 2.063-2.718.246-.446.462-.89.649-1.307.192.42.413.865.664 1.313.53.944 1.215 1.94 2.063 2.71z" stroke="#fff" stroke-width="2" stroke-linecap="round" stroke-linejoin="round"/><path d="M48.96 39.058c.13.117.264.231.404.339a6.31 6.31 0 00-.404.34c-.848.77-1.533 1.765-2.063 2.71a18.09 18.09 0 00-.664 1.313 17.379 17.379 0 00-.65-1.307c-.523-.948-1.205-1.947-2.062-2.72a6.534 6.534 0 00-.405-.336c.14-.107.275-.22.405-.337.857-.772 1.54-1.771 2.063-2.718.246-.446.462-.89.649-1.307.192.42.413.865.664 1.313.53.944 1.215 1.94 2.063 2.71z" stroke="url(#paint2_linear)" stroke-width="2" stroke-linecap="round" stroke-linejoin="round"/><path d="M20.527 39.058c.13.117.265.231.405.339-.14.108-.275.222-.405.34-.848.77-1.532 1.765-2.062 2.71-.25.447-.472.893-.665 1.313a17.338 17.338 0 00-.649-1.307c-.523-.948-1.205-1.947-2.062-2.72a6.534 6.534 0 00-.405-.336c.14-.107.275-.22.405-.337.857-.772 1.54-1.771 2.062-2.718.247-.446.463-.89.65-1.307.192.42.413.865.664 1.313.53.944 1.214 1.94 2.062 2.71z" stroke="#fff" stroke-width="2" stroke-linecap="round" stroke-linejoin="round"/><path d="M20.527 39.058c.13.117.265.231.405.339-.14.108-.275.222-.405.34-.848.77-1.532 1.765-2.062 2.71-.25.447-.472.893-.665 1.313a17.338 17.338 0 00-.649-1.307c-.523-.948-1.205-1.947-2.062-2.72a6.534 6.534 0 00-.405-.336c.14-.107.275-.22.405-.337.857-.772 1.54-1.771 2.062-2.718.247-.446.463-.89.65-1.307.192.42.413.865.664 1.313.53.944 1.214 1.94 2.062 2.71z" stroke="url(#paint3_linear)" stroke-width="2" stroke-linecap="round" stroke-linejoin="round"/><defs><linearGradient id="paint0_linear" x1="21.933" y1="57.705" x2="57.873" y2="-3.593" gradientUnits="userSpaceOnUse"><stop stop-color="#F5B350"/><stop offset="1" stop-color="#6DF1FA"/></linearGradient><linearGradient id="paint1_linear" x1="23.518" y1="32.966" x2="47.608" y2="26.999" gradientUnits="userSpaceOnUse"><stop stop-color="#F5B350"/><stop offset="1" stop-color="#6DF1FA"/></linearGradient><linearGradient id="paint2_linear" x1="42.424" y1="41.142" x2="52.796" y2="38.573" gradientUnits="userSpaceOnUse"><stop stop-color="#F5B350"/><stop offset="1" stop-color="#6DF1FA"/></linearGradient><linearGradient id="paint3_linear" x1="13.992" y1="41.142" x2="24.364" y2="38.573" gradientUnits="userSpaceOnUse"><stop stop-color="#F5B350"/><stop offset="1" stop-color="#6DF1FA"/></linearGradient></defs></svg>