<svg width="64" height="64" fill="none" xmlns="http://www.w3.org/2000/svg"><circle cx="32" cy="32" r="30" stroke="#fff" stroke-width="4"/><circle cx="32" cy="32" r="30" stroke="url(#paint0_linear)" stroke-width="4"/><path d="M41 36.961c0-7.259-12.977-6.785-12.977-11.167 0-2.122 1.968-3.157 4.25-3.157 3.84 0 4.523 2.543 6.262 2.543 1.231 0 1.824-.8 1.824-1.696 0-2.082-3.062-3.659-5.998-4.205v-2.01a2.31 2.31 0 00-.644-1.604A2.168 2.168 0 0032.16 15a2.17 2.17 0 00-1.556.665 2.307 2.307 0 00-.645 1.605v2.08c-3.201.752-5.954 3.041-5.954 6.774 0 6.972 12.975 6.69 12.975 11.588 0 1.696-1.781 3.393-4.706 3.393-4.387 0-5.848-3.062-7.63-3.062-.868 0-1.644.753-1.644 1.888 0 1.804 2.931 3.974 6.962 4.58l-.003.015v2.268a2.31 2.31 0 00.667 1.564c.411.412.962.642 1.535.642s1.124-.23 1.535-.642c.411-.412.65-.973.667-1.564v-2.268c0-.027-.013-.047-.015-.071C37.975 43.757 41 41.318 41 36.96z" fill="#fff"/><path d="M41 36.961c0-7.259-12.977-6.785-12.977-11.167 0-2.122 1.968-3.157 4.25-3.157 3.84 0 4.523 2.543 6.262 2.543 1.231 0 1.824-.8 1.824-1.696 0-2.082-3.062-3.659-5.998-4.205v-2.01a2.31 2.31 0 00-.644-1.604A2.168 2.168 0 0032.16 15a2.17 2.17 0 00-1.556.665 2.307 2.307 0 00-.645 1.605v2.08c-3.201.752-5.954 3.041-5.954 6.774 0 6.972 12.975 6.69 12.975 11.588 0 1.696-1.781 3.393-4.706 3.393-4.387 0-5.848-3.062-7.63-3.062-.868 0-1.644.753-1.644 1.888 0 1.804 2.931 3.974 6.962 4.58l-.003.015v2.268a2.31 2.31 0 00.667 1.564c.411.412.962.642 1.535.642s1.124-.23 1.535-.642c.411-.412.65-.973.667-1.564v-2.268c0-.027-.013-.047-.015-.071C37.975 43.757 41 41.318 41 36.96z" fill="url(#paint1_linear)"/><defs><linearGradient id="paint0_linear" x1="15.471" y1="60.286" x2="50.263" y2="14.101" gradientUnits="userSpaceOnUse"><stop stop-color="#FA6DA0"/><stop offset="1" stop-color="#F5B350"/></linearGradient><linearGradient id="paint1_linear" x1="9.5" y1="60.333" x2="51.52" y2="4.531" gradientUnits="userSpaceOnUse"><stop stop-color="#FA6DA0"/><stop offset="1" stop-color="#F5B350"/></linearGradient></defs></svg>