<svg width="64" height="64" fill="none" xmlns="http://www.w3.org/2000/svg"><circle cx="32" cy="32" r="30" stroke="#000" stroke-width="4"/><circle cx="32" cy="32" r="30" stroke="url(#paint0_linear)" stroke-width="4"/><path d="M43.722 23.15a7.335 7.335 0 00-10.374 0l-1.413 1.412-1.413-1.413a7.335 7.335 0 10-10.374 10.373l1.414 1.414 10.373 10.373 10.373-10.373 1.414-1.414a7.334 7.334 0 000-10.373z" fill="#fff"/><path d="M43.722 23.15a7.335 7.335 0 00-10.374 0l-1.413 1.412-1.413-1.413a7.335 7.335 0 10-10.374 10.373l1.414 1.414 10.373 10.373 10.373-10.373 1.414-1.414a7.334 7.334 0 000-10.373z" stroke="#000" stroke-width="4" stroke-linecap="round" stroke-linejoin="round"/><path d="M43.722 23.15a7.335 7.335 0 00-10.374 0l-1.413 1.412-1.413-1.413a7.335 7.335 0 10-10.374 10.373l1.414 1.414 10.373 10.373 10.373-10.373 1.414-1.414a7.334 7.334 0 000-10.373z" stroke="url(#paint1_linear)" stroke-width="4" stroke-linecap="round" stroke-linejoin="round"/><defs><linearGradient id="paint0_linear" x1="15.471" y1="60.286" x2="50.263" y2="14.101" gradientUnits="userSpaceOnUse"><stop stop-color="#53D1CA"/><stop offset="1" stop-color="#75E142"/></linearGradient><linearGradient id="paint1_linear" x1="24.737" y1="43.898" x2="37.356" y2="24.692" gradientUnits="userSpaceOnUse"><stop stop-color="#53D1CA"/><stop offset="1" stop-color="#75E142"/></linearGradient></defs></svg>