<svg width="40" height="40" fill="none" xmlns="http://www.w3.org/2000/svg"><path fill-rule="evenodd" clip-rule="evenodd" d="M20 9.653a17.06 17.06 0 00-4.255.606c-.296-.087-.81-.43-1.408-.828-1.194-.796-2.718-1.812-3.48-1.431-.867.433-.813 1.688-.736 3.465.025.567.052 1.186.052 1.85.025.076-.084.496-.248 1.134-.614 2.382-2.014 7.809-.211 9.837 2.571 2.571 6.857 3.796 6.857 3.796C7.143 29.142 12 38.286 15.312 40 6.578 37.89 0 29.374 0 20 0 9.015 9.015 0 20 0v4.676V0c10.985 0 20 9.015 20 20 0 6.375-3.042 12.353-7.736 16.189.73-.83 1.443-1.798 2.236-2.952 2.022-2.94 1.649-5.198 1.343-7.044-.297-1.8-.53-3.21 1.586-4.479 2.18-1.307-.114-4.256-2.215-2.666-3.312 2.508-2.949 4.61-2.569 6.807.284 1.64.576 3.334-.645 5.288-.813 1.301-1.97 2.036-3.177 2.725.483-2.658-.637-5.25-5.394-5.786 0 0 4.285-1.225 6.857-3.796 1.802-2.028.403-7.455-.211-9.837-.165-.638-.273-1.058-.248-1.135 0-.663.027-1.282.051-1.849.077-1.777.131-3.032-.735-3.465-.762-.381-2.286.635-3.48 1.431-.598.398-1.112.742-1.408.828A17.047 17.047 0 0020 9.653z" fill="#fff"/><path d="M15 18l-2 2.5 2-.5 2 .5-2-2.5zm10 0l-2 2.5 2-.5 2 .5-2-2.5z" fill="#fff"/></svg>