<svg width="20" height="20" fill="none" xmlns="http://www.w3.org/2000/svg"><path d="M20 6.52h-5.217V5.217h-1.305v-1.74h-1.304V1.303H10.87V0H9.13v1.304H7.827v2.174H6.522v1.74H5.218V6.52H0v3.478h1.305v1.304h1.304V20h3.478v-1.305h2.174V17.39h3.478v1.304h2.174V20h3.478v-8.695h1.305V9.998H20V6.52z" fill="#F5DC41"/><path d="M14.783 6.52V5.217h-1.305v-1.74h-1.304V1.303H10.87V0H9.13v1.304H7.827v2.174H6.522v1.74H5.218V6.52H0v2.608h5.218V7.825h1.304V6.521h1.304V4.782h1.305V2.607h1.739v2.175h1.304V6.52h1.304v1.304h1.305v1.304H20V6.521h-5.217z" fill="#fff"/><path d="M5.217 6.521H0V10h1.304V7.825h3.913V6.521h1.305V5.217H5.217V6.52zM2.609 10H1.304v1.304H2.61V9.999zM9.13 1.303H7.826v2.174H9.13V1.303zM7.826 3.478H6.522v1.739h1.304v-1.74zm4.348-2.175h-1.305v2.174h1.305V1.303zm1.304 2.175h-1.304v1.739h1.304v-1.74zM8.26 17.39H6.088v1.305H8.26V17.39z" fill="#000"/><path d="M2.609 19.13v.869h3.478v-1.305H3.913v-7.39H2.609v7.824zM18.695 10h-1.304v1.304h1.304V9.999zm-2.608 8.694h-2.174V20h3.478v-8.695h-1.304v7.39z" fill="#000"/><path d="M14.782 6.521V5.217h-1.304V6.52h1.304v1.304h3.913V10H20V6.521h-5.218zm-.869 10.869h-2.174v1.305h2.174V17.39zM10.87 0H9.13v1.304h1.74V-.001zm.869 16.086H8.261v1.304h3.478v-1.304z" fill="#000"/></svg>