<svg width="44" height="40" fill="none" xmlns="http://www.w3.org/2000/svg"><path d="M15.745 10.259A17.046 17.046 0 0120 9.653V0C9.015 0 0 9.015 0 20c0 9.374 6.577 17.89 15.313 20C12 38.286 7.143 29.143 16.57 28.082c0 0-4.286-1.225-6.857-3.796-2.286-2.572.577-10.608.459-10.972 0-2.743-.459-4.743.684-5.314 1.143-.571 4 2 4.888 2.259z" fill="#22F5EF"/><path fill-rule="evenodd" clip-rule="evenodd" d="M24 9.653c1.42.019 2.841.222 4.255.606.296-.087.81-.43 1.408-.828C30.857 8.635 32.38 7.62 33.143 8c.867.433.812 1.688.735 3.465-.024.567-.051 1.186-.051 1.85-.025.076.083.496.248 1.134.614 2.382 2.013 7.809.21 9.837-2.57 2.571-6.856 3.796-6.856 3.796 4.757.535 5.877 3.128 5.394 5.786 1.208-.69 2.364-1.424 3.177-2.725 1.221-1.954.929-3.647.645-5.288-.38-2.197-.743-4.299 2.57-6.807 2.1-1.59 4.393 1.359 2.214 2.666-2.116 1.27-1.883 2.679-1.586 4.479.306 1.846.679 4.103-1.343 7.044-.793 1.154-1.507 2.122-2.236 2.952C40.958 32.353 44 26.375 44 20 44 9.015 34.985 0 24 0v9.653z" fill="#FE1753"/><path fill-rule="evenodd" clip-rule="evenodd" d="M23 9.653a17.06 17.06 0 00-4.255.606c-.296-.087-.81-.43-1.408-.828-1.194-.796-2.718-1.812-3.48-1.431-.867.433-.813 1.688-.736 3.465.025.567.052 1.186.052 1.85.025.076-.084.496-.248 1.134-.614 2.382-2.014 7.809-.211 9.837 2.571 2.571 6.857 3.796 6.857 3.796C10.142 29.142 15 38.286 18.312 40 9.578 37.89 3 29.374 3 20 3 9.015 12.015 0 23 0v4.676V0c10.985 0 20 9.015 20 20 0 6.375-3.042 12.353-7.736 16.189.73-.83 1.443-1.798 2.236-2.952 2.022-2.94 1.649-5.198 1.343-7.044-.297-1.8-.53-3.21 1.586-4.479 2.18-1.307-.114-4.256-2.215-2.666-3.312 2.508-2.949 4.61-2.569 6.807.284 1.64.576 3.334-.645 5.288-.813 1.301-1.97 2.036-3.177 2.725.483-2.658-.637-5.25-5.394-5.786 0 0 4.285-1.225 6.857-3.796 1.802-2.028.403-7.455-.211-9.837-.165-.638-.273-1.058-.248-1.135 0-.663.027-1.282.051-1.849.077-1.777.131-3.032-.735-3.465-.762-.381-2.286.635-3.48 1.431-.598.398-1.112.742-1.408.828A17.047 17.047 0 0023 9.653z" fill="#fff"/><path d="M18 18l-2 2.5 2-.5 2 .5-2-2.5zm10 0l-2 2.5 2-.5 2 .5-2-2.5z" fill="#fff"/></svg>