<svg width="204" height="53" fill="none" xmlns="http://www.w3.org/2000/svg"><path d="M78.203 31.14c0-1-.354-1.77-1.062-2.312-.698-.541-1.964-1.088-3.797-1.64-1.834-.553-3.292-1.167-4.375-1.844-2.073-1.302-3.11-3-3.11-5.094 0-1.833.745-3.344 2.235-4.531 1.5-1.188 3.443-1.781 5.828-1.781 1.583 0 2.995.291 4.234.874 1.24.584 2.214 1.417 2.922 2.5a6.354 6.354 0 011.063 3.579h-3.938c0-1.188-.375-2.115-1.125-2.782-.74-.677-1.802-1.015-3.187-1.015-1.292 0-2.297.276-3.016.828-.708.552-1.063 1.323-1.063 2.312 0 .834.386 1.532 1.157 2.094.77.552 2.041 1.094 3.812 1.625 1.771.521 3.193 1.12 4.266 1.797 1.073.667 1.86 1.438 2.36 2.313.5.864.75 1.88.75 3.046 0 1.896-.73 3.407-2.188 4.532-1.448 1.114-3.417 1.672-5.906 1.672-1.646 0-3.162-.303-4.547-.907-1.375-.614-2.448-1.458-3.22-2.531-.76-1.073-1.14-2.323-1.14-3.75h3.953c0 1.292.428 2.292 1.282 3 .854.708 2.078 1.063 3.671 1.063 1.376 0 2.407-.277 3.094-.829.698-.562 1.047-1.302 1.047-2.218zm10.578-11.046l.11 1.953c1.25-1.51 2.89-2.266 4.921-2.266 3.521 0 5.313 2.016 5.376 6.047V37H95.39V26.047c0-1.073-.235-1.865-.704-2.375-.458-.521-1.213-.781-2.265-.781-1.531 0-2.672.692-3.422 2.078V37h-3.797V20.094h3.578zM113.172 37c-.167-.323-.313-.849-.438-1.578-1.208 1.26-2.687 1.89-4.437 1.89-1.698 0-3.083-.484-4.156-1.453-1.073-.968-1.61-2.166-1.61-3.593 0-1.802.667-3.183 2-4.141 1.344-.969 3.261-1.453 5.75-1.453h2.328v-1.11c0-.875-.244-1.572-.734-2.093-.49-.532-1.234-.797-2.234-.797-.865 0-1.573.219-2.125.656-.552.427-.828.974-.828 1.64h-3.797c0-.926.307-1.79.921-2.593.615-.813 1.448-1.448 2.5-1.906 1.063-.459 2.245-.688 3.547-.688 1.98 0 3.558.5 4.735 1.5 1.177.99 1.781 2.386 1.812 4.188v7.625c0 1.52.214 2.734.641 3.64V37h-3.875zM109 34.266a4.28 4.28 0 002.109-.547c.667-.365 1.167-.854 1.5-1.469v-3.188h-2.047c-1.406 0-2.463.245-3.171.735-.709.49-1.063 1.182-1.063 2.078 0 .73.24 1.313.719 1.75.489.427 1.141.64 1.953.64zm26.188-5.547c0 2.614-.594 4.703-1.782 6.265-1.187 1.552-2.781 2.328-4.781 2.328-1.854 0-3.339-.609-4.453-1.828V43.5h-3.797V20.094h3.5l.156 1.718c1.115-1.354 2.63-2.03 4.547-2.03 2.063 0 3.677.77 4.844 2.312 1.177 1.531 1.766 3.661 1.766 6.39v.235zm-3.782-.328c0-1.688-.338-3.026-1.015-4.016-.667-.99-1.625-1.484-2.875-1.484-1.552 0-2.667.64-3.344 1.922v7.5c.687 1.312 1.812 1.968 3.375 1.968 1.208 0 2.151-.484 2.828-1.453.687-.979 1.031-2.458 1.031-4.437zm24.735 1.203c-.23 2.427-1.125 4.323-2.688 5.687-1.562 1.354-3.641 2.032-6.234 2.032-1.813 0-3.412-.428-4.797-1.282-1.375-.864-2.438-2.088-3.188-3.672-.75-1.583-1.14-3.422-1.172-5.515v-2.125c0-2.146.381-4.037 1.141-5.672.761-1.636 1.849-2.896 3.266-3.781 1.427-.886 3.073-1.329 4.937-1.329 2.511 0 4.532.683 6.063 2.047 1.531 1.365 2.422 3.292 2.672 5.782h-3.938c-.187-1.636-.667-2.813-1.437-3.532-.761-.729-1.881-1.093-3.36-1.093-1.718 0-3.041.63-3.968 1.89-.917 1.25-1.386 3.089-1.407 5.516v2.015c0 2.459.438 4.334 1.313 5.625.885 1.292 2.177 1.938 3.875 1.938 1.552 0 2.719-.349 3.5-1.047.781-.698 1.276-1.86 1.484-3.484h3.938zm6.921-7.657c1.24-1.437 2.808-2.156 4.704-2.156 3.604 0 5.432 2.058 5.484 6.172V37h-3.797V26.094c0-1.167-.255-1.99-.765-2.469-.5-.49-1.24-.734-2.219-.734-1.521 0-2.657.677-3.407 2.03V37h-3.796V13h3.796v8.938zM187.203 37c-.167-.323-.312-.849-.437-1.578-1.209 1.26-2.688 1.89-4.438 1.89-1.698 0-3.083-.484-4.156-1.453-1.073-.968-1.61-2.166-1.61-3.593 0-1.802.667-3.183 2-4.141 1.344-.969 3.261-1.453 5.75-1.453h2.329v-1.11c0-.875-.245-1.572-.735-2.093-.489-.532-1.234-.797-2.234-.797-.865 0-1.573.219-2.125.656-.552.427-.828.974-.828 1.64h-3.797c0-.926.307-1.79.922-2.593.614-.813 1.448-1.448 2.5-1.906 1.062-.459 2.245-.688 3.547-.688 1.979 0 3.557.5 4.734 1.5 1.177.99 1.781 2.386 1.813 4.188v7.625c0 1.52.213 2.734.64 3.64V37h-3.875zm-4.172-2.734a4.28 4.28 0 002.11-.547c.666-.365 1.166-.854 1.5-1.469v-3.188h-2.047c-1.406 0-2.464.245-3.172.735-.708.49-1.063 1.182-1.063 2.078 0 .73.24 1.313.719 1.75.49.427 1.141.64 1.953.64zm16.141-18.282v4.11h2.984v2.812h-2.984v9.438c0 .646.125 1.114.375 1.406.26.281.719.422 1.375.422.437 0 .88-.052 1.328-.156v2.937c-.865.24-1.698.36-2.5.36-2.917 0-4.375-1.61-4.375-4.829v-9.578h-2.781v-2.812h2.781v-4.11h3.797z" fill="#fff"/><path d="M0 38.889v.002c.031 1.158.04 2.322.236 3.473.207 1.217.503 2.404 1.068 3.51a11.227 11.227 0 003.136 3.79c.95.74 1.99 1.328 3.139 1.699 1.675.54 3.404.747 5.159.757 1.094.007 2.188.034 3.283.03 7.95-.034 15.902.057 23.854-.05 1.055-.014 2.093-.142 3.128-.331 1.985-.363 3.74-1.21 5.24-2.547 1.749-1.56 2.929-3.467 3.462-5.77.348-1.504.436-3.031.45-4.563v-.306c0-.118-.045-26.034-.049-26.377a15.955 15.955 0 00-.258-2.8c-.214-1.129-.518-2.228-1.058-3.249a11.279 11.279 0 00-2.17-2.895C47.263 1.964 45.7 1.046 43.88.56 42.236.12 40.56.024 38.87.026c-.003 0-.01-.018-.01-.026H13.287l-.001.026c-.959.017-1.92.01-2.873.128-1.045.13-2.08.326-3.07.69a10.804 10.804 0 00-4.068 2.67C1.965 4.872 1.042 6.44.552 8.268.115 9.897.019 11.56.017 13.234" fill="#FFFC00"/><path d="M26.314 44.003c-.108 0-.211-.004-.29-.008a2.227 2.227 0 01-.191.008c-2.276 0-3.797-1.075-5.14-2.024-.963-.68-1.87-1.321-2.934-1.498a9.483 9.483 0 00-1.543-.13c-.905 0-1.62.14-2.141.242-.321.063-.598.116-.812.116-.224 0-.497-.05-.61-.437a12.36 12.36 0 01-.217-.886c-.156-.712-.269-1.147-.536-1.188-2.854-.44-4.54-1.088-4.876-1.873a.729.729 0 01-.06-.248.458.458 0 01.384-.477c2.266-.373 4.282-1.57 5.99-3.56 1.324-1.54 1.974-3.01 2.044-3.173a.312.312 0 01.01-.022c.33-.668.395-1.245.195-1.714-.368-.867-1.586-1.253-2.392-1.509-.2-.063-.39-.123-.54-.183-.715-.282-1.89-.877-1.733-1.7.114-.6.907-1.017 1.549-1.017a1.1 1.1 0 01.469.094c.725.34 1.377.511 1.937.511.698 0 1.034-.265 1.116-.34-.021-.381-.044-.761-.069-1.142-.164-2.602-.368-5.84.461-7.697 2.481-5.558 7.743-5.99 9.296-5.99l.769-.008c1.557 0 6.83.433 9.312 5.995.83 1.858.625 5.099.46 7.704l-.007.124c-.023.354-.044.689-.061 1.013.077.07.385.314 1.012.338.535-.02 1.149-.191 1.825-.508.21-.098.441-.118.598-.118.238 0 .48.046.681.13l.011.004c.574.204.95.61.958 1.038.007.399-.289.994-1.747 1.57-.149.059-.34.119-.54.183-.807.255-2.024.641-2.392 1.508-.2.47-.134 1.046.195 1.713l.01.023c.102.237 2.557 5.83 8.035 6.732a.46.46 0 01.383.478.734.734 0 01-.061.25c-.334.78-2.02 1.427-4.875 1.868-.268.041-.38.474-.535 1.182-.064.293-.129.58-.218.881-.083.284-.268.422-.564.422h-.045c-.193 0-.467-.035-.812-.102a10.699 10.699 0 00-2.141-.227 9.54 9.54 0 00-1.544.13c-1.063.177-1.97.818-2.93 1.496-1.346.95-2.868 2.026-5.144 2.026z" fill="#fff"/><path d="M26.45 8.608c1.466 0 6.514.394 8.893 5.723.784 1.755.583 4.934.422 7.488-.025.405-.05.798-.07 1.173l-.009.162.108.12c.043.048.45.473 1.356.508h.03c.599-.022 1.273-.208 2.006-.551a.98.98 0 01.403-.075c.173 0 .357.032.51.096l.022.01c.384.134.656.387.66.617.002.13-.095.597-1.457 1.134a8.324 8.324 0 01-.51.173c-.887.28-2.225.705-2.676 1.766-.254.597-.184 1.302.206 2.095.16.375 2.69 6.067 8.381 7.004a.251.251 0 01-.023.091c-.097.227-.71 1.012-4.525 1.6-.597.091-.743.76-.913 1.537-.061.279-.123.56-.209.85-.026.087-.03.092-.125.092h-.045c-.169 0-.426-.035-.723-.093a11.205 11.205 0 00-2.23-.235c-.528 0-1.073.046-1.619.137-1.167.194-2.117.865-3.122 1.575-1.35.954-2.746 1.94-4.876 1.94a4.99 4.99 0 01-.275-.008h-.024l-.024.001a1.803 1.803 0 01-.158.007c-2.13 0-3.526-.986-4.875-1.94-1.006-.71-1.956-1.381-3.123-1.575a9.898 9.898 0 00-1.62-.137c-.946 0-1.687.145-2.228.25-.298.059-.556.108-.724.108-.138 0-.141-.008-.17-.107-.086-.29-.148-.578-.21-.856-.17-.778-.316-1.45-.912-1.542-3.815-.589-4.428-1.375-4.525-1.601a.277.277 0 01-.024-.093c5.691-.936 8.22-6.629 8.381-7.005.391-.792.46-1.497.206-2.095-.45-1.06-1.789-1.485-2.674-1.766a8.485 8.485 0 01-.512-.173c-1.15-.454-1.504-.91-1.451-1.188.06-.32.615-.644 1.099-.644.109 0 .204.017.275.05.785.368 1.503.555 2.132.555.989 0 1.429-.46 1.476-.513l.107-.12-.008-.16c-.02-.375-.045-.767-.07-1.172-.161-2.554-.362-5.731.42-7.486 2.371-5.31 7.395-5.72 8.878-5.72l.681-.006h.087zm0-.916h-.098l-.672.007c-.87 0-2.608.123-4.475.947a9.968 9.968 0 00-2.854 1.89c-.985.935-1.787 2.087-2.385 3.426-.874 1.96-.667 5.26-.5 7.912v.005c.019.284.037.58.055.87a1.533 1.533 0 01-.643.12c-.494 0-1.08-.157-1.744-.468a1.56 1.56 0 00-.663-.137c-.395 0-.811.117-1.172.329-.455.266-.748.643-.828 1.06-.052.277-.05.823.557 1.377.334.304.824.585 1.458.835.166.066.363.128.572.195.724.23 1.821.577 2.107 1.25.145.341.083.79-.185 1.332l-.02.045c-.067.156-.69 1.567-1.97 3.055a11.076 11.076 0 01-2.378 2.103 8.747 8.747 0 01-3.339 1.303.917.917 0 00-.766.955c.007.135.04.27.094.4l.001.002c.187.437.62.808 1.325 1.135.861.4 2.149.736 3.827.999.085.16.173.566.234.843.064.295.13.598.225.92.102.349.368.765 1.05.765.258 0 .555-.058.9-.125.503-.099 1.193-.233 2.053-.233.477 0 .97.042 1.468.124.96.16 1.786.743 2.743 1.42 1.4.988 2.984 2.107 5.406 2.107.066 0 .132-.002.197-.006.08.003.18.006.284.006 2.422 0 4.007-1.12 5.405-2.108l.002-.002c.957-.675 1.783-1.257 2.742-1.417a9.008 9.008 0 011.468-.124c.822 0 1.473.104 2.053.218.38.074.674.11.9.11h.045c.499 0 .865-.273 1.005-.752.093-.315.16-.61.225-.91.057-.26.148-.677.233-.84 1.68-.263 2.966-.599 3.827-.998.703-.326 1.136-.697 1.324-1.132.057-.13.09-.265.097-.403a.915.915 0 00-.767-.955c-5.232-.861-7.589-6.233-7.686-6.461a.641.641 0 00-.02-.045c-.268-.542-.33-.99-.185-1.332.285-.672 1.382-1.02 2.107-1.25a8.98 8.98 0 00.572-.194c.714-.282 1.224-.587 1.561-.934.402-.414.48-.81.476-1.07-.013-.628-.493-1.186-1.257-1.459a2.249 2.249 0 00-.852-.163 1.9 1.9 0 00-.792.162c-.612.286-1.16.442-1.63.465a1.477 1.477 0 01-.54-.119l.046-.759.007-.112c.168-2.654.376-5.957-.499-7.918-.6-1.343-1.405-2.498-2.394-3.435a9.993 9.993 0 00-2.864-1.891 11.402 11.402 0 00-4.473-.94z" fill="#020202"/></svg>