<svg width="180" height="52" fill="none" xmlns="http://www.w3.org/2000/svg"><path d="M34.398 18.597a20.853 20.853 0 0012.016 3.774v-8.464a12.39 12.39 0 01-2.523-.26v6.664c-4.48 0-8.628-1.399-12.016-3.775V33.81c0 8.642-7.136 15.646-15.937 15.646a16.07 16.07 0 01-8.872-2.646 16.035 16.035 0 0011.395 4.707c8.802 0 15.938-7.005 15.938-15.646V18.597zm3.113-8.54a11.698 11.698 0 01-3.113-6.908V2.061h-2.39c.601 3.37 2.654 6.25 5.503 7.995zM12.633 40.178a7.043 7.043 0 01-1.487-4.333c0-3.952 3.263-7.157 7.29-7.157.75 0 1.496.113 2.211.335V20.37a16.354 16.354 0 00-2.522-.142v6.735a7.422 7.422 0 00-2.213-.335c-4.026 0-7.29 3.204-7.29 7.157 0 2.795 1.632 5.215 4.01 6.394z" fill="#FF004F"/><path d="M31.875 16.536A20.858 20.858 0 0043.89 20.31v-6.663a12.116 12.116 0 01-6.38-3.59c-2.849-1.747-4.9-4.627-5.503-7.997h-6.281v33.81c-.014 3.94-3.273 7.132-7.29 7.132a7.327 7.327 0 01-5.804-2.824c-2.379-1.179-4.01-3.599-4.01-6.394 0-3.952 3.263-7.156 7.29-7.156a7.43 7.43 0 012.213.335v-6.736C9.477 20.403 2.523 27.34 2.523 35.87c0 4.259 1.732 8.12 4.543 10.94a16.072 16.072 0 008.872 2.647c8.802 0 15.937-7.005 15.937-15.647V16.536z" fill="#fff"/><path d="M43.89 13.647v-1.801a12.18 12.18 0 01-6.379-1.79 12.105 12.105 0 006.38 3.591zM32.008 2.061a11.835 11.835 0 01-.132-.972V0h-8.673v33.81c-.014 3.941-3.272 7.133-7.29 7.133a7.37 7.37 0 01-3.28-.764 7.327 7.327 0 005.803 2.824c4.018 0 7.277-3.191 7.29-7.133V2.06h6.282zM18.125 20.228V18.31a16.4 16.4 0 00-2.187-.146C7.136 18.164 0 25.17 0 33.81c0 5.417 2.804 10.192 7.066 13-2.81-2.82-4.543-6.681-4.543-10.94 0-8.53 6.955-15.467 15.602-15.642z" fill="#00F2EA"/><path d="M144.383 42.373c6.298 0 11.403-4.975 11.403-11.11 0-6.136-5.105-11.112-11.403-11.112h-1.718c6.298 0 11.403 4.976 11.403 11.111 0 6.136-5.105 11.11-11.403 11.11h1.718z" fill="#FF004F"/><path d="M142.509 20.151h-1.718c-6.298 0-11.405 4.976-11.405 11.111 0 6.136 5.107 11.11 11.405 11.11h1.718c-6.299 0-11.405-4.974-11.405-11.11 0-6.135 5.106-11.11 11.405-11.11z" fill="#00F2EA"/><path d="M55.811 15.13v5.631h6.716v21.46h6.719V20.913h5.467l1.874-5.783H55.811zm54.987 0v5.631h6.716v21.46h6.719V20.913h5.466l1.875-5.783h-20.776zm-32.96 3.195c0-1.764 1.466-3.196 3.278-3.196 1.813 0 3.281 1.432 3.281 3.196 0 1.765-1.467 3.196-3.281 3.196-1.812 0-3.278-1.43-3.278-3.196zm0 5.48h6.559v18.416h-6.559V23.805zm9.371-8.676v27.092h6.562v-7l2.03-1.829 6.404 8.98h7.029l-9.217-13.088 8.28-7.915h-7.967l-6.56 6.392V15.129h-6.56zm70.763 0v27.092h6.562v-7l2.03-1.829 6.406 8.98H180l-9.217-13.088 8.279-7.915h-7.966l-6.562 6.392V15.129h-6.562zm-15.308 27.244c6.298 0 11.405-4.975 11.405-11.11 0-6.136-5.107-11.112-11.405-11.112h-.156c-6.298 0-11.404 4.976-11.404 11.111 0 6.136 5.106 11.11 11.404 11.11h.156zm-5.623-11.11c0-2.985 2.484-5.403 5.547-5.403 3.061 0 5.544 2.418 5.544 5.402 0 2.985-2.483 5.404-5.544 5.404-3.063 0-5.547-2.419-5.547-5.403z" fill="#fff"/></svg>