<svg width="120" height="112" viewBox="0 0 120 112" fill="none" xmlns="http://www.w3.org/2000/svg">
<path d="M88.6607 57.7172L88.6326 57.7822L88.6065 57.848C88.1884 58.898 88.17 59.883 88.1724 60.3285C88.1755 60.8931 88.2333 61.4453 88.3008 61.9206C88.437 62.8792 88.6732 63.9362 88.9335 64.9392C89.4562 66.9533 90.1946 69.1994 90.8576 70.857C93.3468 77.0798 101.363 85.3151 113.79 88.4241C111.056 92.3439 106.598 93.7804 100.041 94.7313C98.7804 94.9142 97.3469 95.0873 95.8387 95.2693C93.1302 95.5963 90.1811 95.9523 87.5599 96.4463C83.232 97.2621 78.6164 98.6134 74.5368 101.464L74.5341 101.465C70.2568 104.458 66.5945 106.953 61.0819 106.999L61.0796 106.999C61.0088 106.99 60.864 106.972 60.7058 106.958C60.5301 106.942 60.2935 106.925 60.0189 106.925H59.2789C53.6729 106.925 50.0387 104.473 45.7966 101.426L45.775 101.411L45.7533 101.396C41.5764 98.4629 36.8863 97.1439 32.5024 96.3949C29.8415 95.9403 26.846 95.6447 24.1142 95.3752C22.6192 95.2277 21.2031 95.088 19.9641 94.9342C16.0667 94.4507 12.9643 93.7675 10.5003 92.4561C8.84474 91.575 7.37103 90.3537 6.15976 88.4632C14.203 86.2511 20.0403 81.2218 23.8955 76.694C27.8594 72.0383 29.9914 67.6126 30.5353 66.4109L30.5371 66.4076L30.5745 66.3362C31.7481 64.0961 32.7712 60.7947 31.2877 57.5887C30.0721 54.9115 27.6718 53.4388 26.1618 52.6681C25.005 52.0777 23.7793 51.6152 22.7957 51.2722C23.7102 51.4651 24.6355 51.5788 25.5606 51.5856C27.207 51.6295 28.8378 51.2499 30.2963 50.4823L33.245 48.9304L32.9476 45.6115L32.6989 42.8354C32.4487 38.7504 32.1866 34.4418 32.2919 30.4376C32.4006 26.3053 32.8977 23.1208 33.8082 21.0977L33.8201 21.0712L33.8317 21.0447C40.2668 6.29057 54.2006 5.06835 58.6259 5.06835H58.708L58.7899 5.06566L60.7912 5H61.014C65.412 5 79.4417 6.2381 86.107 21.1372C86.9354 22.9889 87.8173 27.1747 87.5095 34.6687C87.5063 34.6978 87.5012 34.7423 87.4933 34.8056C87.4769 34.9378 87.4551 35.0995 87.4264 35.3101L87.4109 35.4233C87.3576 35.8136 87.2893 36.3127 87.2251 36.8551C87.086 38.0288 86.9419 39.5876 86.9885 41.1636C87.0313 42.6103 87.2423 44.7306 88.2872 46.6226C88.8533 47.6474 89.7279 48.7196 91.0374 49.4914C92.3685 50.276 93.8254 50.559 95.2285 50.4948C96.5401 50.4348 97.1077 50.7557 97.2922 50.8886C97.4927 51.0329 97.6126 51.2204 97.6696 51.4551C97.7037 51.5954 97.7067 51.719 97.6979 51.8141C97.4935 51.8688 97.2712 51.9242 97.0014 51.9914C96.8458 52.0302 96.6745 52.0729 96.4817 52.1217C95.84 52.284 94.9947 52.5068 94.1411 52.8261C92.4804 53.4475 89.9417 54.747 88.6607 57.7172Z" stroke="url(#paint0_linear)" stroke-width="10"/>
<defs>
<linearGradient id="paint0_linear" x1="29" y1="105.5" x2="88.6135" y2="20.734" gradientUnits="userSpaceOnUse">
<stop stop-color="#FA6DA0"/>
<stop offset="1" stop-color="#F5B350"/>
</linearGradient>
</defs>
</svg>
