<svg width="40" height="40" viewBox="0 0 40 40" fill="none" xmlns="http://www.w3.org/2000/svg">
<path fill-rule="evenodd" clip-rule="evenodd" d="M19.9998 9.65332C18.5796 9.67165 17.1582 9.8752 15.7449 10.2588C15.4489 10.1725 14.9341 9.82933 14.337 9.43123C13.1426 8.63497 11.6187 7.61904 10.8568 8C9.99024 8.43329 10.0445 9.68796 10.1214 11.465C10.1459 12.0316 10.1727 12.6512 10.1727 13.3142C10.1977 13.3911 10.0895 13.8109 9.92481 14.4494C9.31062 16.8315 7.91145 22.2579 9.71397 24.2857C12.2854 26.8571 16.5711 28.0817 16.5711 28.0817C7.14254 29.1429 11.9997 38.2857 15.3125 40C6.57745 37.8894 7.74797e-09 29.3741 7.74797e-09 20C-0.000305168 9.01489 9.01459 0 19.9997 0L19.9998 4.67583L20 0C30.9851 0 40 9.01489 39.9997 20C39.9997 26.3749 36.9578 32.3526 32.2641 36.1889C32.9931 35.359 33.7066 34.3913 34.5 33.2373C36.5219 30.2964 36.1486 28.0388 35.8433 26.1928C35.5456 24.3926 35.3127 22.9838 37.4286 21.7142C39.6081 20.4065 37.3145 17.4584 35.2143 19.0484C31.9018 21.5562 32.2652 23.6584 32.6451 25.8553C32.9286 27.4956 33.2213 29.1887 32 31.1428C31.1866 32.4442 30.0308 33.1786 28.8232 33.868C29.3063 31.21 28.1859 28.6171 23.4286 28.0817C23.4286 28.0817 27.7143 26.8571 30.2857 24.2857C32.0882 22.2579 30.6891 16.8315 30.0749 14.4495L30.0749 14.4494C29.9102 13.8109 29.802 13.3911 29.827 13.3142C29.827 12.6512 29.8538 12.0316 29.8783 11.465V11.465C29.9552 9.68796 30.0094 8.43329 29.1429 8C28.3809 7.61904 26.8571 8.63497 25.6627 9.43123L25.6627 9.43125C25.0655 9.82934 24.5508 10.1725 24.2548 10.2588C22.8415 9.8752 21.4201 9.67165 19.9998 9.65332Z" fill="white"/>
<path d="M15 18L13 20.5L15 20L17 20.5L15 18Z" fill="white"/>
<path d="M25 18L23 20.5L25 20L27 20.5L25 18Z" fill="white"/>
</svg>
