<svg width="44" height="40" viewBox="0 0 44 40" fill="none" xmlns="http://www.w3.org/2000/svg">
<path d="M15.7449 10.2588C17.1582 9.87518 18.5797 9.67163 20 9.65332L19.9997 0C9.01459 0 -0.000305168 9.01489 7.74799e-09 20C7.74799e-09 29.3741 6.57745 37.8894 15.3125 40C11.9997 38.2857 7.14254 29.1429 16.5711 28.0817C16.5711 28.0817 12.2854 26.8571 9.71397 24.2857C7.42826 21.7143 10.2908 13.678 10.1727 13.3142C10.1727 10.5714 9.71397 8.57143 10.8568 8C11.9997 7.42857 14.8568 10 15.7449 10.2588Z" fill="#22F5EF"/>
<path fill-rule="evenodd" clip-rule="evenodd" d="M23.9997 9.65332C25.42 9.67163 26.8415 9.87518 28.2548 10.2588C28.5508 10.1725 29.0656 9.82933 29.6627 9.43123C30.8571 8.63497 32.3809 7.61904 33.1429 8C34.0095 8.43329 33.9552 9.68796 33.8783 11.465C33.8538 12.0316 33.827 12.6512 33.827 13.3142C33.802 13.3911 33.9102 13.8109 34.0749 14.4494C34.6891 16.8315 36.0882 22.2579 34.2857 24.2857C31.7143 26.8571 27.4286 28.0817 27.4286 28.0817C32.1859 28.6171 33.3063 31.21 32.8232 33.868C34.0308 33.1786 35.1866 32.4442 36 31.1428C37.2214 29.1887 36.9286 27.4956 36.6451 25.8553C36.2652 23.6584 35.9018 21.5562 39.2143 19.0484C41.3145 17.4584 43.6081 20.4065 41.4286 21.7142C39.3127 22.9838 39.5456 24.3926 39.8433 26.1928C40.1486 28.0388 40.5219 30.2964 38.5 33.2373C37.7067 34.3913 36.9931 35.359 36.2641 36.1889C40.9578 32.3526 43.9997 26.3749 43.9997 20C44 9.01489 34.9851 0 24 0L23.9997 9.65332Z" fill="#FE1753"/>
<path fill-rule="evenodd" clip-rule="evenodd" d="M22.9998 9.65332C21.5796 9.67165 20.1582 9.8752 18.7449 10.2588C18.4489 10.1725 17.9341 9.82933 17.337 9.43123C16.1426 8.63497 14.6187 7.61904 13.8568 8C12.9902 8.43329 13.0445 9.68796 13.1214 11.465C13.1459 12.0316 13.1727 12.6512 13.1727 13.3142C13.1977 13.3911 13.0895 13.8109 12.9248 14.4494C12.3106 16.8315 10.9115 22.2579 12.714 24.2857C15.2854 26.8571 19.5711 28.0817 19.5711 28.0817C10.1425 29.1429 14.9997 38.2857 18.3125 40C9.57745 37.8894 3 29.3741 3 20C2.99969 9.01489 12.0146 0 22.9997 0L22.9998 4.67583L23 0C33.9851 0 43 9.01489 42.9997 20C42.9997 26.3749 39.9578 32.3526 35.2641 36.1889C35.9931 35.359 36.7066 34.3913 37.5 33.2373C39.5219 30.2964 39.1486 28.0388 38.8433 26.1928C38.5456 24.3926 38.3127 22.9838 40.4286 21.7142C42.6081 20.4065 40.3145 17.4584 38.2143 19.0484C34.9018 21.5562 35.2652 23.6584 35.6451 25.8553C35.9286 27.4956 36.2213 29.1887 35 31.1428C34.1866 32.4442 33.0308 33.1786 31.8232 33.868C32.3063 31.21 31.1859 28.6171 26.4286 28.0817C26.4286 28.0817 30.7143 26.8571 33.2857 24.2857C35.0882 22.2579 33.6891 16.8315 33.0749 14.4495L33.0749 14.4494C32.9102 13.8109 32.802 13.3911 32.827 13.3142C32.827 12.6512 32.8538 12.0316 32.8783 11.465V11.465C32.9552 9.68796 33.0094 8.43329 32.1429 8C31.3809 7.61904 29.8571 8.63497 28.6627 9.43123L28.6627 9.43125C28.0655 9.82934 27.5508 10.1725 27.2548 10.2588C25.8415 9.8752 24.4201 9.67165 22.9998 9.65332Z" fill="white"/>
<path d="M18 18L16 20.5L18 20L20 20.5L18 18Z" fill="white"/>
<path d="M28 18L26 20.5L28 20L30 20.5L28 18Z" fill="white"/>
</svg>
