<svg width="204" height="53" viewBox="0 0 204 53" fill="none" xmlns="http://www.w3.org/2000/svg">
<path d="M78.2031 31.1406C78.2031 30.1406 77.849 29.3698 77.1406 28.8281C76.4427 28.2865 75.1771 27.7396 73.3438 27.1875C71.5104 26.6354 70.0521 26.0208 68.9688 25.3438C66.8958 24.0417 65.8594 22.3438 65.8594 20.25C65.8594 18.4167 66.6042 16.9062 68.0938 15.7188C69.5938 14.5312 71.5365 13.9375 73.9219 13.9375C75.5052 13.9375 76.9167 14.2292 78.1562 14.8125C79.3958 15.3958 80.3698 16.2292 81.0781 17.3125C81.7865 18.3854 82.1406 19.5781 82.1406 20.8906H78.2031C78.2031 19.7031 77.8281 18.776 77.0781 18.1094C76.3385 17.4323 75.276 17.0938 73.8906 17.0938C72.599 17.0938 71.5938 17.3698 70.875 17.9219C70.1667 18.474 69.8125 19.2448 69.8125 20.2344C69.8125 21.0677 70.1979 21.7656 70.9688 22.3281C71.7396 22.8802 73.0104 23.4219 74.7812 23.9531C76.5521 24.474 77.974 25.0729 79.0469 25.75C80.1198 26.4167 80.9062 27.1875 81.4062 28.0625C81.9062 28.9271 82.1562 29.9427 82.1562 31.1094C82.1562 33.0052 81.4271 34.5156 79.9688 35.6406C78.5208 36.7552 76.5521 37.3125 74.0625 37.3125C72.4167 37.3125 70.901 37.0104 69.5156 36.4062C68.1406 35.7917 67.0677 34.9479 66.2969 33.875C65.5365 32.8021 65.1562 31.5521 65.1562 30.125H69.1094C69.1094 31.4167 69.5365 32.4167 70.3906 33.125C71.2448 33.8333 72.4688 34.1875 74.0625 34.1875C75.4375 34.1875 76.4688 33.9115 77.1562 33.3594C77.8542 32.7969 78.2031 32.0573 78.2031 31.1406ZM88.7812 20.0938L88.8906 22.0469C90.1406 20.5365 91.7812 19.7812 93.8125 19.7812C97.3333 19.7812 99.125 21.7969 99.1875 25.8281V37H95.3906V26.0469C95.3906 24.974 95.1562 24.1823 94.6875 23.6719C94.2292 23.151 93.474 22.8906 92.4219 22.8906C90.8906 22.8906 89.75 23.5833 89 24.9688V37H85.2031V20.0938H88.7812ZM113.172 37C113.005 36.6771 112.859 36.151 112.734 35.4219C111.526 36.6823 110.047 37.3125 108.297 37.3125C106.599 37.3125 105.214 36.8281 104.141 35.8594C103.068 34.8906 102.531 33.6927 102.531 32.2656C102.531 30.4635 103.198 29.0833 104.531 28.125C105.875 27.1562 107.792 26.6719 110.281 26.6719H112.609V25.5625C112.609 24.6875 112.365 23.9896 111.875 23.4688C111.385 22.9375 110.641 22.6719 109.641 22.6719C108.776 22.6719 108.068 22.8906 107.516 23.3281C106.964 23.7552 106.688 24.3021 106.688 24.9688H102.891C102.891 24.0417 103.198 23.1771 103.812 22.375C104.427 21.5625 105.26 20.9271 106.312 20.4688C107.375 20.0104 108.557 19.7812 109.859 19.7812C111.839 19.7812 113.417 20.2812 114.594 21.2812C115.771 22.2708 116.375 23.6667 116.406 25.4688V33.0938C116.406 34.6146 116.62 35.8281 117.047 36.7344V37H113.172ZM109 34.2656C109.75 34.2656 110.453 34.0833 111.109 33.7188C111.776 33.3542 112.276 32.8646 112.609 32.25V29.0625H110.562C109.156 29.0625 108.099 29.3073 107.391 29.7969C106.682 30.2865 106.328 30.9792 106.328 31.875C106.328 32.6042 106.568 33.1875 107.047 33.625C107.536 34.0521 108.188 34.2656 109 34.2656ZM135.188 28.7188C135.188 31.3333 134.594 33.4219 133.406 34.9844C132.219 36.5365 130.625 37.3125 128.625 37.3125C126.771 37.3125 125.286 36.7031 124.172 35.4844V43.5H120.375V20.0938H123.875L124.031 21.8125C125.146 20.4583 126.661 19.7812 128.578 19.7812C130.641 19.7812 132.255 20.5521 133.422 22.0938C134.599 23.625 135.188 25.7552 135.188 28.4844V28.7188ZM131.406 28.3906C131.406 26.7031 131.068 25.3646 130.391 24.375C129.724 23.3854 128.766 22.8906 127.516 22.8906C125.964 22.8906 124.849 23.5312 124.172 24.8125V32.3125C124.859 33.625 125.984 34.2812 127.547 34.2812C128.755 34.2812 129.698 33.7969 130.375 32.8281C131.062 31.849 131.406 30.3698 131.406 28.3906ZM156.141 29.5938C155.911 32.0208 155.016 33.9167 153.453 35.2812C151.891 36.6354 149.812 37.3125 147.219 37.3125C145.406 37.3125 143.807 36.8854 142.422 36.0312C141.047 35.1667 139.984 33.9427 139.234 32.3594C138.484 30.776 138.094 28.9375 138.062 26.8438V24.7188C138.062 22.5729 138.443 20.6823 139.203 19.0469C139.964 17.4115 141.052 16.151 142.469 15.2656C143.896 14.3802 145.542 13.9375 147.406 13.9375C149.917 13.9375 151.938 14.6198 153.469 15.9844C155 17.349 155.891 19.276 156.141 21.7656H152.203C152.016 20.1302 151.536 18.9531 150.766 18.2344C150.005 17.5052 148.885 17.1406 147.406 17.1406C145.688 17.1406 144.365 17.7708 143.438 19.0312C142.521 20.2812 142.052 22.1198 142.031 24.5469V26.5625C142.031 29.0208 142.469 30.8958 143.344 32.1875C144.229 33.4792 145.521 34.125 147.219 34.125C148.771 34.125 149.938 33.776 150.719 33.0781C151.5 32.3802 151.995 31.2188 152.203 29.5938H156.141ZM163.062 21.9375C164.302 20.5 165.87 19.7812 167.766 19.7812C171.37 19.7812 173.198 21.8385 173.25 25.9531V37H169.453V26.0938C169.453 24.9271 169.198 24.1042 168.688 23.625C168.188 23.1354 167.448 22.8906 166.469 22.8906C164.948 22.8906 163.812 23.5677 163.062 24.9219V37H159.266V13H163.062V21.9375ZM187.203 37C187.036 36.6771 186.891 36.151 186.766 35.4219C185.557 36.6823 184.078 37.3125 182.328 37.3125C180.63 37.3125 179.245 36.8281 178.172 35.8594C177.099 34.8906 176.562 33.6927 176.562 32.2656C176.562 30.4635 177.229 29.0833 178.562 28.125C179.906 27.1562 181.823 26.6719 184.312 26.6719H186.641V25.5625C186.641 24.6875 186.396 23.9896 185.906 23.4688C185.417 22.9375 184.672 22.6719 183.672 22.6719C182.807 22.6719 182.099 22.8906 181.547 23.3281C180.995 23.7552 180.719 24.3021 180.719 24.9688H176.922C176.922 24.0417 177.229 23.1771 177.844 22.375C178.458 21.5625 179.292 20.9271 180.344 20.4688C181.406 20.0104 182.589 19.7812 183.891 19.7812C185.87 19.7812 187.448 20.2812 188.625 21.2812C189.802 22.2708 190.406 23.6667 190.438 25.4688V33.0938C190.438 34.6146 190.651 35.8281 191.078 36.7344V37H187.203ZM183.031 34.2656C183.781 34.2656 184.484 34.0833 185.141 33.7188C185.807 33.3542 186.307 32.8646 186.641 32.25V29.0625H184.594C183.188 29.0625 182.13 29.3073 181.422 29.7969C180.714 30.2865 180.359 30.9792 180.359 31.875C180.359 32.6042 180.599 33.1875 181.078 33.625C181.568 34.0521 182.219 34.2656 183.031 34.2656ZM199.172 15.9844V20.0938H202.156V22.9062H199.172V32.3438C199.172 32.9896 199.297 33.4583 199.547 33.75C199.807 34.0312 200.266 34.1719 200.922 34.1719C201.359 34.1719 201.802 34.1198 202.25 34.0156V36.9531C201.385 37.1927 200.552 37.3125 199.75 37.3125C196.833 37.3125 195.375 35.7031 195.375 32.4844V22.9062H192.594V20.0938H195.375V15.9844H199.172Z" fill="white"/>
<path d="M0 38.8889V38.8912C0.0312387 40.049 0.0408741 41.2134 0.236319 42.364C0.443427 43.5814 0.739484 44.7684 1.30432 45.8732C2.06794 47.3687 3.11667 48.6315 4.44045 49.6631C5.3909 50.4038 6.42918 50.9918 7.57852 51.3627C9.25445 51.9029 10.9834 52.1099 12.7377 52.12C13.8321 52.1269 14.9259 52.1543 16.0208 52.1497C23.9719 52.1163 31.9233 52.2071 39.8746 52.1007C40.9297 52.0864 41.9676 51.9578 43.0032 51.7686C44.9879 51.4056 46.7421 50.5594 48.2428 49.2215C49.9919 47.6628 51.172 45.7551 51.7046 43.4527C52.0532 41.9477 52.1405 40.4209 52.1554 38.8887V38.583C52.1554 38.4645 52.1102 12.5488 52.1061 12.2063C52.0944 11.2653 52.0251 10.3314 51.8485 9.40555C51.6338 8.2773 51.3304 7.17793 50.7897 6.1572C50.2188 5.07881 49.5036 4.10916 48.6191 3.26183C47.2642 1.96362 45.7006 1.04556 43.8804 0.559921C42.2363 0.121409 40.559 0.0243224 38.8695 0.0258426C38.8668 0.0254372 38.8604 0.00831013 38.86 0H13.2873C13.2868 0.0087155 13.2865 0.0174311 13.2859 0.0258426C12.327 0.0433749 11.3667 0.0361794 10.4127 0.154345C9.36764 0.284166 8.33261 0.479657 7.34342 0.844694C5.78534 1.42053 4.43163 2.31741 3.27529 3.51478C1.9652 4.87136 1.04173 6.44025 0.551748 8.26716C0.11461 9.89717 0.0194741 11.5596 0.0171413 13.2338" fill="#FFFC00"/>
<path d="M26.3143 44.0027C26.206 44.0027 26.1026 43.9988 26.024 43.995C25.9617 44.0004 25.8973 44.0027 25.8328 44.0027C23.5571 44.0027 22.0355 42.9278 20.6928 41.9786C19.7304 41.2993 18.8227 40.658 17.7594 40.4812C17.2372 40.3947 16.7177 40.3508 16.2157 40.3508C15.3113 40.3508 14.5966 40.491 14.0747 40.5929C13.7536 40.6555 13.4768 40.7093 13.2627 40.7093C13.0386 40.7093 12.7663 40.6596 12.6528 40.2724C12.5628 39.9669 12.4983 39.671 12.436 39.386C12.2802 38.6739 12.1673 38.2392 11.9004 38.198C9.04624 37.758 7.35986 37.1098 7.02394 36.3248C6.9898 36.2463 6.96975 36.1625 6.96471 36.0772C6.95838 35.9644 6.99399 35.8533 7.06471 35.7651C7.13542 35.677 7.23624 35.6181 7.34779 35.5998C9.61442 35.2268 11.6298 34.0297 13.3383 32.0407C14.6618 30.5008 15.3117 29.0295 15.3815 28.867C15.3846 28.8596 15.388 28.8522 15.3917 28.845C15.7211 28.1774 15.7866 27.6004 15.5871 27.1307C15.2193 26.2641 14.0013 25.878 13.1955 25.6225C12.9951 25.5592 12.8055 25.4992 12.6545 25.4393C11.9402 25.1574 10.7654 24.5617 10.9219 23.7395C11.0359 23.1399 11.8295 22.7224 12.4709 22.7224C12.649 22.7224 12.8068 22.7536 12.9397 22.8159C13.6645 23.1552 14.3165 23.3272 14.8773 23.3272C15.5747 23.3272 15.9115 23.0619 15.993 22.9865C15.9719 22.606 15.9489 22.2255 15.9241 21.8452C15.7604 19.2432 15.5563 16.0051 16.3852 14.1482C18.8662 8.58981 24.1278 8.15759 25.6808 8.15759C25.9372 8.15544 26.1935 8.15304 26.4498 8.15039C28.0071 8.15039 33.2796 8.58312 35.7622 14.1448C36.5911 16.003 36.3868 19.2438 36.2225 21.8485L36.2148 21.9732C36.1923 22.3269 36.1715 22.6616 36.154 22.9861C36.2307 23.0566 36.5389 23.2999 37.166 23.3245C37.7006 23.304 38.3149 23.1328 38.9914 22.8163C39.2006 22.7182 39.4321 22.6979 39.5893 22.6979C39.827 22.6979 40.0688 22.7441 40.2703 22.8281L40.281 22.8323C40.8551 23.0359 41.2311 23.4427 41.2392 23.8702C41.2464 24.2687 40.95 24.8643 39.4924 25.4395C39.3431 25.4986 39.1526 25.559 38.9514 25.6227C38.1448 25.8785 36.9279 26.2644 36.5601 27.1305C36.3603 27.6002 36.426 28.177 36.7554 28.8444C36.7591 28.8517 36.7622 28.8591 36.7658 28.8668C36.8672 29.1044 39.3222 34.6976 44.7995 35.5992C44.911 35.6177 45.0118 35.6766 45.0825 35.7647C45.1532 35.8528 45.1889 35.9639 45.1827 36.0767C45.1773 36.1629 45.1568 36.2474 45.122 36.3265C44.7884 37.1071 43.1022 37.7544 40.2472 38.195C39.9792 38.2364 39.8663 38.6691 39.7119 39.3775C39.6481 39.6701 39.583 39.9569 39.4943 40.2583C39.4112 40.5417 39.2264 40.6803 38.9297 40.6803H38.8849C38.6917 40.6803 38.418 40.6452 38.0727 40.5777C37.4693 40.4604 36.7925 40.3511 35.9318 40.3511C35.4299 40.3511 34.9105 40.3951 34.3877 40.4815C33.3255 40.6583 32.4179 41.2986 31.4572 41.9772C30.1118 42.9277 28.5898 44.0027 26.3143 44.0027Z" fill="white"/>
<path d="M26.4497 8.60832C27.9158 8.60832 32.9643 9.00184 35.3434 14.3314C36.1268 16.0863 35.926 19.2654 35.7649 21.8191C35.7398 22.2244 35.7148 22.6172 35.6945 22.9922L35.686 23.1535L35.7937 23.2736C35.8372 23.3218 36.2444 23.747 37.1502 23.782L37.1648 23.7828L37.18 23.7825C37.7788 23.7597 38.4533 23.5738 39.1857 23.231C39.2937 23.1805 39.4373 23.1559 39.5892 23.1559C39.7623 23.1559 39.9463 23.1884 40.0981 23.2523L40.121 23.2614C40.5051 23.3959 40.7766 23.6494 40.7807 23.8789C40.783 24.0086 40.6859 24.4759 39.3244 25.0133C39.1913 25.0658 39.0162 25.1217 38.8131 25.1856C37.9271 25.4667 36.5885 25.891 36.1379 26.9517C35.8843 27.5492 35.9538 28.2544 36.3442 29.0473C36.5049 29.4219 39.034 35.1142 44.725 36.0512C44.7231 36.0828 44.7152 36.1137 44.7018 36.1424C44.6054 36.3694 43.9922 37.1537 40.1771 37.7419C39.5801 37.8333 39.4338 38.502 39.2642 39.2793C39.203 39.5576 39.1407 39.8385 39.0551 40.1286C39.0289 40.2163 39.0241 40.2213 38.9301 40.2213H38.8852C38.7161 40.2213 38.4592 40.1862 38.1616 40.1278C37.6195 40.0223 36.8789 39.8929 35.9321 39.8929C35.4036 39.8929 34.8593 39.9388 34.3131 40.0299C33.1456 40.2239 32.1962 40.8949 31.1907 41.6051C29.8403 42.5585 28.4446 43.5451 26.3151 43.5451C26.2221 43.5451 26.1313 43.542 26.0404 43.5374L26.0164 43.5364L25.9924 43.5382C25.9402 43.5428 25.8875 43.5451 25.8338 43.5451C23.7046 43.5451 22.3083 42.5588 20.9585 41.6051C19.9528 40.8949 19.0028 40.2239 17.8355 40.0299C17.2899 39.9391 16.745 39.8929 16.2169 39.8929C15.2703 39.8929 14.5288 40.0376 13.9878 40.1433C13.6901 40.2015 13.4324 40.2514 13.2637 40.2514C13.1256 40.2514 13.123 40.2433 13.0938 40.1435C13.0082 39.8532 12.9456 39.5656 12.8846 39.2877C12.7146 38.5096 12.5683 37.8373 11.9716 37.7458C8.15674 37.1571 7.54352 36.3714 7.44677 36.145C7.43361 36.1156 7.42568 36.0841 7.42334 36.052C13.1142 35.1158 15.6429 29.4234 15.804 29.0473C16.1952 28.255 16.2646 27.5499 16.0101 26.9517C15.5596 25.8916 14.2212 25.4667 13.3358 25.1861C13.1322 25.1218 12.9569 25.0658 12.8238 25.0133C11.674 24.5594 11.3204 24.1021 11.3729 23.8251C11.4339 23.5055 11.9882 23.1806 12.472 23.1806C12.5808 23.1806 12.6761 23.1982 12.7466 23.2311C13.5323 23.5991 14.2496 23.7857 14.8787 23.7857C15.8677 23.7857 16.3079 23.3259 16.3552 23.2734L16.4624 23.1536L16.4537 22.9932C16.4338 22.6183 16.4091 22.2256 16.3832 21.8211C16.2226 19.2668 16.0218 16.0899 16.8049 14.3348C19.1752 9.02484 24.199 8.61552 25.682 8.61552C25.7185 8.61552 26.3633 8.60893 26.3633 8.60893C26.3897 8.60873 26.419 8.60832 26.4497 8.60832ZM26.4497 7.69238H26.448C26.4142 7.69238 26.3825 7.69238 26.3522 7.69279L25.6795 7.69948C24.8107 7.69948 23.0724 7.8221 21.2052 8.64562C20.1376 9.11615 19.1773 9.75238 18.3511 10.5367C17.3661 11.4712 16.5636 12.6233 15.9664 13.9617C15.0918 15.9212 15.2994 19.2219 15.4662 21.8743L15.4668 21.8785C15.4846 22.1625 15.5034 22.4592 15.5205 22.7482C15.3922 22.8071 15.1842 22.8692 14.8776 22.8692C14.3843 22.8692 13.7976 22.7116 13.1344 22.4011C12.9393 22.3103 12.7166 22.2644 12.4708 22.2644C12.076 22.2644 11.6597 22.3805 11.2987 22.5926C10.8444 22.8592 10.5509 23.2359 10.4711 23.6535C10.4186 23.9298 10.4211 24.4758 11.0282 25.0295C11.362 25.3344 11.8525 25.6155 12.4856 25.8655C12.6518 25.9309 12.8489 25.9933 13.0578 26.0595C13.7824 26.2896 14.8792 26.6373 15.1652 27.31C15.3102 27.651 15.2478 28.0997 14.9804 28.6421C14.9734 28.6569 14.9664 28.6714 14.96 28.6866C14.8931 28.8426 14.2696 30.2539 12.9905 31.7423C12.2637 32.5887 11.4632 33.2961 10.6124 33.8454C9.57404 34.516 8.45046 34.9544 7.27323 35.1481C7.05003 35.1848 6.84826 35.3026 6.70673 35.4789C6.56521 35.6552 6.49391 35.8775 6.50656 36.1032C6.51447 36.238 6.54612 36.3724 6.60099 36.5024L6.60231 36.5047C6.78923 36.9416 7.22262 37.3127 7.92721 37.6401C8.7882 38.0396 10.0759 38.3758 11.7541 38.6388C11.8389 38.7999 11.927 39.2049 11.9879 39.4822C12.0517 39.7769 12.1183 40.0799 12.2131 40.4018C12.3154 40.7505 12.5809 41.1672 13.2627 41.1672C13.5212 41.1672 13.8183 41.109 14.1625 41.0423C14.6664 40.9435 15.3556 40.8087 16.2158 40.8087C16.6927 40.8087 17.1869 40.8507 17.6844 40.9333C18.6434 41.0928 19.4701 41.6763 20.4266 42.3521C21.8267 43.341 23.4114 44.4603 25.8327 44.4603C25.8988 44.4603 25.965 44.4582 26.0304 44.4536C26.1104 44.4574 26.2096 44.4603 26.3143 44.4603C28.7363 44.4603 30.3207 43.3406 31.7192 42.3525L31.7214 42.3505C32.6782 41.6755 33.504 41.0928 34.4626 40.9333C34.9599 40.8508 35.454 40.8087 35.9311 40.8087C36.7529 40.8087 37.4035 40.9134 37.9845 41.0266C38.3636 41.1012 38.6582 41.1371 38.8843 41.1371L38.9064 41.1375H38.9293C39.428 41.1375 39.7945 40.864 39.9344 40.3853C40.0273 40.0703 40.0936 39.7743 40.159 39.4747C40.216 39.2148 40.3071 38.7983 40.3919 38.6354C42.0713 38.372 43.3584 38.0365 44.2195 37.637C44.9225 37.3112 45.3554 36.9405 45.5434 36.5054C45.5998 36.375 45.6328 36.2398 45.6402 36.1022C45.6529 35.8765 45.5816 35.6541 45.44 35.4778C45.2985 35.3015 45.0967 35.1837 44.8734 35.1471C39.6414 34.2855 37.2844 28.9139 37.187 28.6857C37.1806 28.6706 37.1737 28.6558 37.1662 28.6413C36.8987 28.0987 36.837 27.6505 36.982 27.3088C37.2674 26.6368 38.3635 26.2891 39.0887 26.0591C39.2986 25.993 39.4965 25.9302 39.6613 25.8651C40.3752 25.5834 40.8855 25.2777 41.2221 24.9306C41.6242 24.5168 41.7025 24.1204 41.6976 23.861C41.6853 23.2332 41.2051 22.6754 40.4412 22.4023C40.1832 22.2957 39.8889 22.2395 39.5893 22.2395C39.3854 22.2395 39.0833 22.2674 38.7974 22.4008C38.1853 22.687 37.637 22.8435 37.1663 22.8658C36.916 22.8531 36.7404 22.7989 36.6267 22.7471C36.641 22.5022 36.6568 22.2507 36.6732 21.9884L36.68 21.8761C36.8476 19.222 37.0559 15.9188 36.181 13.9578C35.5812 12.6147 34.7759 11.4596 33.7869 10.5231C32.9575 9.7383 31.994 9.10217 30.9225 8.63193C29.0579 7.8145 27.3197 7.69238 26.4497 7.69238Z" fill="#020202"/>
</svg>
