<svg width="20" height="20" viewBox="0 0 20 20" fill="none" xmlns="http://www.w3.org/2000/svg">
<path d="M20 6.52072H19.9999V6.52068H18.6956H14.7826V5.21636H13.4783V3.47723H12.174V1.30335H10.8696V-0.000976562H9.13055V1.30335H7.82622V3.47723H6.52186V5.21636H5.21754V6.52072H1.30457V6.52068H0.000244141V9.99889H0.000361327H1.30457V11.3032H2.60889V18.6944V19.1292V19.9987H6.0871V19.1292V18.6944V18.6944H8.26098V17.3901V17.3901H11.7392V17.3901V18.6944H13.9131V18.6944V19.9987H17.3913V19.1292V18.6944V11.3032H18.6956V9.99893H20V6.52072Z" fill="#F5DC41"/>
<path d="M14.7826 6.52068V5.21636H13.4783V3.47723H12.174V1.30335H10.8696V-0.000976562H9.13055V1.30335H7.82622V3.47723H6.52186V5.21636H5.21754V6.52068H0.000244141V9.12933H1.30457H5.21754V7.825H6.52186V6.52068H7.82622V5.21636V4.78156H9.13055V3.47723V2.60767H10.8696V3.47723V4.78156H12.174V5.21636V6.52068H13.4783V7.825H14.7826V9.12933H18.6956H19.9999V6.52068H14.7826Z" fill="white"/>
<path d="M5.21729 6.52112H0V7.82544V9.99933H1.30432V7.82544H5.21729V6.52112H6.52162V5.2168H5.21729V6.52112Z" fill="black"/>
<path d="M2.60864 9.99927H1.30432V11.3036H2.60864V9.99927Z" fill="black"/>
<path d="M9.13025 1.30322H7.82593V3.47711H9.13025V1.30322Z" fill="black"/>
<path d="M7.82593 3.47754H6.52161V5.21662H7.82593V3.47754Z" fill="black"/>
<path d="M12.1737 1.30322H10.8694V3.47711H12.1737V1.30322Z" fill="black"/>
<path d="M13.4782 3.47754H12.1738V5.21662H13.4782V3.47754Z" fill="black"/>
<path d="M8.26068 17.3901H6.08679V18.6945H8.26068V17.3901Z" fill="black"/>
<path d="M2.60864 19.1292V19.9987H6.08685V18.6944H3.91297V11.3032H2.60864V18.6944V19.1292Z" fill="black"/>
<path d="M18.6954 9.99927H17.3911V11.3036H18.6954V9.99927Z" fill="black"/>
<path d="M16.0866 18.6944H13.9127V19.9987H17.3909V19.1292V18.6944V11.3032H16.0866V18.6944Z" fill="black"/>
<path d="M14.7824 6.52112V5.2168H13.478V6.52112H14.7824V7.82544H18.6954V9.99933H19.9997V7.82544V6.52112H14.7824Z" fill="black"/>
<path d="M13.9129 17.3901H11.739V18.6945H13.9129V17.3901Z" fill="black"/>
<path d="M10.8695 -0.000732422H9.13037V1.30359H10.8695V-0.000732422Z" fill="black"/>
<path d="M11.739 16.0859H8.26074V17.3903H11.739V16.0859Z" fill="black"/>
</svg>
