<svg width="180" height="52" viewBox="0 0 180 52" fill="none" xmlns="http://www.w3.org/2000/svg">
<path d="M34.3985 18.5966C37.785 20.9732 41.9337 22.3715 46.4144 22.3715V13.9067C45.5664 13.9068 44.7206 13.82 43.891 13.6475V20.3105C39.4106 20.3105 35.2625 18.9122 31.8751 16.5357V33.8101C31.8751 42.4516 24.7395 49.4565 15.9379 49.4565C12.6538 49.4565 9.60133 48.4817 7.06567 46.8101C9.95971 49.7151 13.9957 51.5173 18.4608 51.5173C27.2629 51.5173 34.3989 44.5125 34.3989 35.8706V18.5966H34.3985ZM37.5114 10.0565C35.7807 8.20027 34.6444 5.80139 34.3985 3.14931V2.06055H32.0072C32.6091 5.43133 34.6622 8.31113 37.5114 10.0565ZM12.6327 40.1788C11.6658 38.9341 11.1432 37.4115 11.1456 35.8458C11.1456 31.8935 14.4093 28.689 18.4359 28.689C19.1863 28.6888 19.9323 28.8016 20.6474 29.0244V20.3703C19.8117 20.2578 18.9682 20.2101 18.1251 20.2276V26.9635C17.4094 26.7407 16.6631 26.6276 15.9125 26.6283C11.8859 26.6283 8.62231 29.8325 8.62231 33.7854C8.62231 36.5803 10.2537 39 12.6327 40.1788Z" fill="#FF004F"/>
<path d="M31.8749 16.5356C35.2623 18.912 39.4104 20.3104 43.8908 20.3104V13.6473C41.3899 13.1243 39.1759 11.8412 37.5112 10.0566C34.6618 8.31096 32.6089 5.43116 32.007 2.06055H25.7257V35.8703C25.7115 39.8118 22.4533 43.0033 18.4354 43.0033C16.0677 43.0033 13.9642 41.8952 12.632 40.1788C10.2531 39 8.62177 36.5801 8.62177 33.7855C8.62177 29.8331 11.8854 26.6285 15.912 26.6285C16.6834 26.6285 17.427 26.7464 18.1245 26.9637V20.2278C9.47749 20.4032 2.52319 27.3396 2.52319 35.8704C2.52319 40.129 4.25497 43.9895 7.06567 46.8102C9.60133 48.4817 12.6538 49.4566 15.9379 49.4566C24.7397 49.4566 31.8751 42.4515 31.8751 33.8101V16.5356H31.8749Z" fill="white"/>
<path d="M43.8908 13.6474V11.8458C41.6356 11.8491 39.4247 11.2291 37.5113 10.0565C39.2051 11.877 41.4355 13.1324 43.8908 13.6474ZM32.0071 2.06066C31.9496 1.73852 31.9055 1.41426 31.8749 1.08876V0H23.2022V33.8101C23.1883 37.751 19.9303 40.9425 15.912 40.9425C14.7323 40.9425 13.6184 40.6676 12.632 40.1791C13.9642 41.8953 16.0677 43.0032 18.4354 43.0032C22.453 43.0032 25.7117 39.812 25.7258 35.8705V2.06066H32.0071ZM18.1249 20.2279V18.3099C17.4002 18.2127 16.6696 18.1639 15.9381 18.1642C7.13556 18.1641 0 25.1692 0 33.8101C0 39.2274 2.8044 44.0016 7.0659 46.81C4.2552 43.9894 2.52342 40.1287 2.52342 35.8704C2.52342 27.3397 9.47754 20.4033 18.1249 20.2279Z" fill="#00F2EA"/>
<path d="M144.383 42.3729C150.681 42.3729 155.786 37.3983 155.786 31.2625C155.786 25.1268 150.681 20.1514 144.383 20.1514H142.665C148.963 20.1514 154.068 25.1267 154.068 31.2625C154.068 37.3983 148.963 42.3729 142.665 42.3729H144.383Z" fill="#FF004F"/>
<path d="M142.509 20.1514H140.791C134.493 20.1514 129.386 25.1267 129.386 31.2625C129.386 37.3983 134.493 42.3729 140.791 42.3729H142.509C136.21 42.3729 131.104 37.3983 131.104 31.2625C131.104 25.1268 136.21 20.1514 142.509 20.1514Z" fill="#00F2EA"/>
<path d="M55.8112 15.1294V20.7612H62.5271V42.2207H69.2458V20.9132H74.7128L76.5873 15.1296H55.8112V15.1294ZM110.798 15.1294V20.7612H117.514V42.2207H124.233V20.9132H129.699L131.574 15.1296H110.798V15.1294ZM77.8381 18.3253C77.8381 16.5606 79.3044 15.1294 81.1159 15.1294C82.9291 15.1294 84.397 16.5606 84.397 18.3253C84.397 20.0902 82.93 21.5214 81.1159 21.5214C79.3044 21.5205 77.8381 20.0902 77.8381 18.3253ZM77.8381 23.805H84.397V42.2207H77.8381V23.805ZM87.2093 15.1294V42.2205H93.7706V35.2201L95.8016 33.3921L102.205 42.3726H109.234L100.017 29.2837L108.297 21.3685H100.33L93.7706 27.7605V15.1294H87.2093ZM157.972 15.1294V42.2205H164.534V35.2201L166.564 33.3921L172.97 42.3726H180L170.783 29.2837L179.062 21.3685H171.096L164.534 27.7605V15.1294H157.972Z" fill="white"/>
<path d="M142.664 42.3729C148.962 42.3729 154.069 37.3983 154.069 31.2625C154.069 25.1268 148.962 20.1514 142.664 20.1514H142.508C136.21 20.1514 131.104 25.1267 131.104 31.2625C131.104 37.3983 136.21 42.3729 142.508 42.3729H142.664ZM137.041 31.2625C137.041 28.2778 139.525 25.8602 142.588 25.8602C145.649 25.8602 148.132 28.2778 148.132 31.2625C148.132 34.2471 145.649 36.6662 142.588 36.6662C139.525 36.6656 137.041 34.2471 137.041 31.2625Z" fill="white"/>
</svg>
